<svg xmlns="http://www.w3.org/2000/svg" width="69" height="69" viewBox="0 0 69 69">
  <g id="Group_125296" data-name="Group 125296" transform="translate(-21753 -20278.695)">
    <circle id="Ellipse_912" data-name="Ellipse 912" cx="34.5" cy="34.5" r="34.5" transform="translate(21753 20278.695)" fill="#f9f9f9"/>
    <rect id="Rectangle_48075" data-name="Rectangle 48075" width="30" height="30" transform="translate(21773 20298.695)" fill="#f9f9f9"/>
    <g id="Unique_Profile_Page" data-name="Unique Profile Page" transform="translate(27831 8015.695)">
      <g id="Group_125299" data-name="Group 125299" transform="translate(-27843 -8363)">
        <rect id="Rectangle_48078" data-name="Rectangle 48078" width="30" height="30" transform="translate(21785 20646)" fill="none"/>
        <g id="homosexual" transform="translate(21711.678 20628.021)">
          <path id="Path_288315" data-name="Path 288315" d="M80.017,127.38A6.377,6.377,0,0,0,81.19,128.6a7.745,7.745,0,0,0,2.8,1.513,6.957,6.957,0,0,0,1.353.281c.433.037.525.259.542.61.034.709.02,1.422.006,2.132a.551.551,0,0,1-.628.6c-.795,0-1.589.006-2.384,0-.19,0-.249.049-.251.245-.005.637-.014.637.607.637.669,0,1.339.011,2.008,0,.448-.01.634.1.648.683.018.732.016,1.464,0,2.2-.006.256.056.342.324.333.561-.019.561,0,.561-.559,0-.711,0-1.422,0-2.133,0-.4.122-.514.524-.514.805,0,1.61-.007,2.415,0,.2,0,.265-.056.265-.262,0-.62.009-.62-.624-.62q-.988,0-1.976,0c-.436,0-.6-.166-.6-.587,0-.742,0-1.485,0-2.227,0-.375.1-.463.466-.513a8.033,8.033,0,0,0,7.076-7.351,7.836,7.836,0,0,0-.327-2.989,7.344,7.344,0,0,0-1.347-2.578.587.587,0,0,1,.015-.835q.781-.794,1.575-1.575a.588.588,0,0,1,.787-.044.547.547,0,0,1-.108.742c-.392.392-.782.786-1.176,1.175-.109.108-.153.183-.041.339a8.411,8.411,0,0,1,1.424,3.347,8.665,8.665,0,0,1,.188,2,9.08,9.08,0,0,1-5.013,7.852,7.8,7.8,0,0,1-2.305.748c-.238.037-.29.153-.278.372a8.775,8.775,0,0,1,0,.941c-.01.2.061.247.25.245.805-.009,1.61,0,2.415,0,.419,0,.538.118.539.533q0,.863,0,1.725c0,.373-.131.5-.506.5-.805,0-1.61.008-2.415,0-.215,0-.288.051-.284.276.014.774.006,1.547,0,2.321,0,.457-.2.663-.651.669-.5.007-1,.005-1.506,0a.592.592,0,0,1-.665-.669c0-.774-.01-1.548,0-2.321,0-.226-.07-.279-.284-.275-.794.012-1.589.005-2.384,0-.365,0-.536-.165-.537-.519,0-.586,0-1.171,0-1.757,0-.354.133-.483.492-.484.816,0,1.631-.007,2.447,0,.2,0,.277-.053.265-.262a5.317,5.317,0,0,1,0-.909c.033-.279-.1-.36-.327-.4a8.284,8.284,0,0,1-3.436-1.451,8.78,8.78,0,0,1-3.213-4.113,9.527,9.527,0,0,1-.577-2.607,8.413,8.413,0,0,1,.383-3.289c.1-.313.262-.4.561-.338.256.055.373.252.328.56-.064.437-.2.856-.267,1.3a8.051,8.051,0,0,0,.027,2.462,7.8,7.8,0,0,0,.8,2.384A6.962,6.962,0,0,0,80.017,127.38Z" transform="translate(0 -90.839)" fill="#111"/>
          <path id="Path_288316" data-name="Path 288316" d="M96.452,25.276a8.718,8.718,0,0,1,4.219-2.438,8.333,8.333,0,0,1,2.519-.271A8.882,8.882,0,0,1,108,24.187c.1.075.178.09.27,0l3.376-3.38c-.384,0-.694.021-1,0-.634-.053-1.415.282-1.867-.178s-.109-1.237-.173-1.872a1.133,1.133,0,0,1,0-.125c0-.42.2-.639.617-.64q3.309-.01,6.618,0a.562.562,0,0,1,.608.629q0,3.294,0,6.587c0,.471-.163.624-.642.624h-1.537c-.49,0-.642-.154-.644-.655,0-.669,0-1.338,0-2.007a.542.542,0,0,0-.068-.366c-.3.318-.579.623-.867.92a.5.5,0,0,1-.711.112c-.209-.162-.239-.4-.04-.693a3.82,3.82,0,0,1,.462-.506c.419-.423.837-.849,1.268-1.26.186-.177.4-.357.683-.171a.446.446,0,0,1,.223.413c-.011.993,0,1.987-.011,2.98,0,.232.055.3.294.3.653-.011.653,0,.653-.655,0-1.652,0-3.3.005-4.956,0-.23-.053-.3-.292-.3q-2.682.016-5.364,0c-.239,0-.324.051-.317.307.017.576,0,.577.575.577.889,0,1.778.008,2.666-.005a.466.466,0,0,1,.486.3.451.451,0,0,1-.144.553q-1.909,1.906-3.815,3.815c-.229.229-.455.462-.689.686a.59.59,0,0,1-.835.015,7.739,7.739,0,0,0-3.261-1.533,6.752,6.752,0,0,0-1.657-.182,8.079,8.079,0,0,0-4.946,1.735,8.421,8.421,0,0,0-1.993,2.277.521.521,0,0,1-.5.3.463.463,0,0,1-.4-.3.436.436,0,0,1,.038-.413A7.712,7.712,0,0,1,96.452,25.276Z" transform="translate(-16.561)" fill="#111"/>
          <path id="Path_288317" data-name="Path 288317" d="M106.955,129.515a7.186,7.186,0,0,1,.289-5.015,7.172,7.172,0,0,1,9.849-3.466,7.17,7.17,0,1,1-7.665,12.057A6.784,6.784,0,0,1,106.955,129.515Z" transform="translate(-27.477 -95.826)" fill="#111"/>
        </g>
      </g>
    </g>
  </g>
</svg>
